<svg xmlns="http://www.w3.org/2000/svg" viewBox="0 0 21.75 21.74"><defs><style>.cls-1{fill:#fff;}</style></defs><title>About Us</title><g id="Layer_2" data-name="Layer 2"><g id="section_one" data-name="section one"><path class="cls-1" d="M18.57,3.18A10.87,10.87,0,0,0,.65,14.56a.44.44,0,0,0,.56.27.45.45,0,0,0,.27-.57,10,10,0,0,1-.37-5.49,9.87,9.87,0,0,1,2.7-5A10,10,0,0,1,18.12,17.75l-.07.07-.11.12a10,10,0,0,1-14.13,0l-.06-.07v-.38s0-.06,0-.09a1.09,1.09,0,0,1,0-.18.34.34,0,0,1,0-.1c0-.05,0-.11,0-.16s0-.07,0-.11a.77.77,0,0,1,0-.15s0-.08,0-.11l0-.15s0-.07,0-.11l0-.14,0-.12,0-.13,0-.12a.65.65,0,0,0,0-.13s0-.08,0-.11,0-.09,0-.14,0-.07,0-.11,0-.09,0-.13,0-.07,0-.11a.5.5,0,0,0,0-.13l.05-.1.06-.13a.54.54,0,0,1,0-.11l.06-.12,0-.1a.75.75,0,0,0,.07-.12l.06-.11a.75.75,0,0,1,.07-.12L4.84,14l.07-.12a.61.61,0,0,0,.07-.1l.08-.11.07-.1.08-.11.07-.09.09-.11.07-.09.1-.1.07-.09.1-.1.08-.08.1-.1L6,12.58l.11-.1.08-.08.11-.09.09-.07.12-.1.08-.06.13-.1.08-.05.14-.1L7,11.78l.2-.12,0,0,.22-.13.08,0,.16-.08.1-.05.12-.06a4.31,4.31,0,0,0,6,0,7.16,7.16,0,0,1,3.54,3.61.45.45,0,0,0,.59.22.44.44,0,0,0,.22-.58,8,8,0,0,0-3.76-3.95,4.25,4.25,0,0,0,.75-2.42,4.33,4.33,0,0,0-4.32-4.33.45.45,0,1,0,0,.89,3.43,3.43,0,0,1,2.55,5.73h0a3.45,3.45,0,0,1-5.11,0h0a3.44,3.44,0,0,1,.14-4.74.45.45,0,0,0-.63-.63A4.33,4.33,0,0,0,6.55,8.16a4.27,4.27,0,0,0,.75,2.42h0l-.1.05L7,10.72l-.11.06-.14.09-.11.06L6.53,11l-.11.07-.13.09-.11.08-.12.09L6,11.43l-.12.1-.1.08-.12.1-.1.09-.11.1L5.3,12l-.11.11-.09.09L5,12.31l-.08.09-.11.12-.08.09a1.47,1.47,0,0,1-.1.13l-.08.09-.1.14-.07.09-.12.18,0,0-.15.24,0,.08-.09.16-.06.1L3.78,14l-.06.11a.61.61,0,0,1-.07.14l0,.12a.91.91,0,0,1-.07.14.61.61,0,0,1,0,.12,1.21,1.21,0,0,0,0,.14.69.69,0,0,0-.05.13.58.58,0,0,0,0,.14s0,.08-.05.13a1.21,1.21,0,0,1,0,.14l0,.13-.05.15,0,.12c0,.06,0,.11,0,.16l0,.12,0,.16,0,.13a1,1,0,0,1,0,.16.5.5,0,0,0,0,.12,1,1,0,0,0,0,.17s0,.08,0,.12,0,.12,0,.18a.41.41,0,0,1,0,.11,1.34,1.34,0,0,1,0,.2v.1a2.81,2.81,0,0,0,0,.29c0,.11,0,.21,0,.32s0,.05,0,.08h0a.64.64,0,0,0,0,.07h0l0,.06H3a.21.21,0,0,0,0,.06H3l.06.06.13.14a10.9,10.9,0,0,0,15.39,0l.13-.14.06-.06a10.88,10.88,0,0,0-.19-15.18Z"/></g></g></svg>