<svg xmlns="http://www.w3.org/2000/svg" viewBox="0 0 27 27"><defs><style>.cls-1{fill:#040056;}</style></defs><title>Asset 3</title><g id="Layer_2" data-name="Layer 2"><g id="section_four" data-name="section four"><path class="cls-1" d="M6.17,5.27a.38.38,0,0,0,.09-.15A.33.33,0,0,0,6.3,5,.46.46,0,0,0,6,4.53a.45.45,0,0,0-.49.1l0,.07a.2.2,0,0,0,0,.08.11.11,0,0,0,0,.08A.28.28,0,0,0,5.4,5a.48.48,0,0,0,.13.32.38.38,0,0,0,.15.09A.46.46,0,0,0,6.17,5.27Z"/><path class="cls-1" d="M14.4,8.1a.45.45,0,1,0,0-.9h-.9a.45.45,0,1,0,0,.9Z"/><path class="cls-1" d="M11.7,8.1a.45.45,0,0,0,0-.9h-.9a.45.45,0,0,0,0,.9Z"/><path class="cls-1" d="M2.7,7.65A1.35,1.35,0,1,0,4.05,6.3,1.34,1.34,0,0,0,2.7,7.65Zm1.8,0a.45.45,0,1,1-.45-.45A.45.45,0,0,1,4.5,7.65Z"/><path class="cls-1" d="M14.4,12.6h-.9a.45.45,0,0,0,0,.9h.9a.45.45,0,0,0,0-.9Z"/><path class="cls-1" d="M11.7,12.6h-.9a.45.45,0,0,0,0,.9h.9a.45.45,0,1,0,0-.9Z"/><path class="cls-1" d="M4.05,11.7A1.35,1.35,0,1,0,5.4,13.05,1.34,1.34,0,0,0,4.05,11.7Zm0,1.8a.45.45,0,1,1,.45-.45A.45.45,0,0,1,4.05,13.5Z"/><path class="cls-1" d="M13.5,18.9h.9a.45.45,0,1,0,0-.9h-.9a.45.45,0,1,0,0,.9Z"/><path class="cls-1" d="M10.8,18.9h.9a.45.45,0,1,0,0-.9h-.9a.45.45,0,0,0,0,.9Z"/><path class="cls-1" d="M4.05,17.1A1.35,1.35,0,1,0,5.4,18.45,1.34,1.34,0,0,0,4.05,17.1Zm0,1.8a.45.45,0,1,1,.45-.45A.45.45,0,0,1,4.05,18.9Z"/><path class="cls-1" d="M18.45,25.2H14a.9.9,0,0,0-.9-.9h-2.7V21.6h5.4A2.25,2.25,0,0,0,18,19.35v-1.8a2.24,2.24,0,0,0-.91-1.8A2.24,2.24,0,0,0,18,14v-1.8a2.24,2.24,0,0,0-.91-1.8A2.24,2.24,0,0,0,18,8.55V6.75A2.25,2.25,0,0,0,15.75,4.5H7.65a.45.45,0,0,0,0,.9h8.1A1.34,1.34,0,0,1,17.1,6.75v1.8A1.34,1.34,0,0,1,15.75,9.9H2.25A1.34,1.34,0,0,1,.9,8.55V6.75A1.34,1.34,0,0,1,2.25,5.4h1.8a.45.45,0,0,0,0-.9H2.25A2.25,2.25,0,0,0,0,6.75v1.8a2.24,2.24,0,0,0,.91,1.8A2.24,2.24,0,0,0,0,12.15V14a2.24,2.24,0,0,0,.91,1.8A2.24,2.24,0,0,0,0,17.55v1.8A2.25,2.25,0,0,0,2.25,21.6h5.4v2.7H5a.9.9,0,0,0-.9.9H.45a.45.45,0,0,0,0,.9h3.6A.9.9,0,0,0,5,27h8.1a.9.9,0,0,0,.9-.9h4.5a.45.45,0,0,0,0-.9ZM.9,14v-1.8A1.34,1.34,0,0,1,2.25,10.8h13.5a1.34,1.34,0,0,1,1.35,1.35V14a1.34,1.34,0,0,1-1.35,1.35H2.25A1.34,1.34,0,0,1,.9,14Zm0,5.4v-1.8A1.34,1.34,0,0,1,2.25,16.2h13.5a1.34,1.34,0,0,1,1.35,1.35v1.8a1.34,1.34,0,0,1-1.35,1.35H2.25A1.34,1.34,0,0,1,.9,19.35ZM8.55,21.6h.9v2.7h-.9ZM5,26.1v-.9h8.1v.9Z"/><path class="cls-1" d="M22.18,3a.45.45,0,0,0,.64-.64L20.57.13a.56.56,0,0,0-.15-.1.5.5,0,0,0-.34,0,.56.56,0,0,0-.15.1L17.68,2.38a.45.45,0,0,0,.64.64L19.8,1.54v7a.45.45,0,0,0,.9,0v-7Z"/><path class="cls-1" d="M26.23,9.58l-1.48,1.48v-7a.45.45,0,1,0-.9,0v7L22.37,9.58a.45.45,0,0,0-.64.64L24,12.47a.48.48,0,0,0,.32.13.46.46,0,0,0,.32-.13l2.25-2.25a.45.45,0,0,0-.64-.64Z"/></g></g></svg>