<svg xmlns="http://www.w3.org/2000/svg" viewBox="0 0 23.67 21.6"><defs><style>.cls-1{fill:#fff;}</style></defs><title>Client login</title><g id="Layer_2" data-name="Layer 2"><g id="section_one" data-name="section one"><path class="cls-1" d="M16.48,10.23,14,8.45a.69.69,0,0,0-1.1.56v1.1H.69a.69.69,0,0,0,0,1.38H12.85v1.09a.7.7,0,0,0,1.1.57l2.53-1.78A.7.7,0,0,0,16.48,10.23Z"/><path class="cls-1" d="M12.87,0A10.79,10.79,0,0,0,3.52,5.4a.7.7,0,0,0,.25.95.69.69,0,0,0,.95-.26,9.41,9.41,0,1,1,0,9.42.69.69,0,1,0-1.2.69A10.8,10.8,0,1,0,12.87,0Z"/></g></g></svg>