<svg xmlns="http://www.w3.org/2000/svg" viewBox="0 0 21.22 21.22"><defs><style>.cls-1{fill:#fff;}</style></defs><title>Contact</title><g id="Layer_2" data-name="Layer 2"><g id="section_one" data-name="section one"><path class="cls-1" d="M18.31,10.72H17.23a6.41,6.41,0,0,0-6.4-6.4V3.24A7.48,7.48,0,0,1,18.31,10.72ZM10.83,5.1V6.18a4.54,4.54,0,0,1,4.53,4.54h1.08A5.62,5.62,0,0,0,10.83,5.1ZM10.61,0a10.61,10.61,0,0,0,0,21.22.66.66,0,0,0,0-1.31,9.3,9.3,0,1,1,9.3-9.3,6,6,0,0,1-2.77,5.17,4,4,0,0,1-1.92.49,3,3,0,0,0,1-1,1.5,1.5,0,0,0,.15-.23,9.24,9.24,0,0,0,.36-1.64c.16-.69-3-2-3.3-1.18a8.41,8.41,0,0,1-.45,1.6c-.18.24-.62.12-.9-.11-.72-.62-1.53-1.53-2.24-2.25h0l-.06-.06-.06-.06h0C9,10.64,8.12,9.83,7.5,9.11c-.23-.28-.35-.72-.11-.9A8.41,8.41,0,0,1,9,7.76c.86-.28-.49-3.46-1.18-3.3a8.94,8.94,0,0,0-1.63.36A1.2,1.2,0,0,0,5.94,5c-1.82,1.15-2.05,4-.28,6,.68.8,1.39,1.57,2.11,2.32h0l.06.06.06.06h0A19.32,19.32,0,0,0,11,16.21c3,2,5.4,1.47,6.78.72a7.35,7.35,0,0,0,3.45-6.32A10.62,10.62,0,0,0,10.61,0Z"/></g></g></svg>