<svg xmlns="http://www.w3.org/2000/svg" viewBox="0 0 28 28"><defs><style>.cls-1{fill:#040056;}</style></defs><title>surface1 (2)</title><g id="Layer_2" data-name="Layer 2"><g id="section_four" data-name="section four"><g id="surface1"><path class="cls-1" d="M23.8,2.65V0h-.93V2.37a3.73,3.73,0,0,0-.47,0h-.93V0h-.94V2.33h-1.4V0H18.2V2.33H16.8V0h-.93V2.33h-1.4V0h-.94V2.33h-1.4V0H11.2V2.33H9.8V0H8.87V2.33H7.47V0H6.53V2.33H5.6a3.73,3.73,0,0,0-.47,0V0H4.2V2.65A3.33,3.33,0,0,0,2.65,4.2H0v.93H2.37a3.73,3.73,0,0,0,0,.47v.93H0v.94H2.33v1.4H0V9.8H2.33v1.4H0v.93H2.33v1.4H0v.94H2.33v1.4H0v.93H2.33v1.4H0v.93H2.33v1.4H0v.94H2.33v.93a3.73,3.73,0,0,0,0,.47H0v.93H2.65A3.33,3.33,0,0,0,4.2,25.35V28h.93V25.63a3.73,3.73,0,0,0,.47,0h.93V28h.94V25.67h1.4V28H9.8V25.67h1.4V28h.93V25.67h1.4V28h.94V25.67h1.4V28h.93V25.67h1.4V28h.93V25.67h1.4V28h.94V25.67h.93a3.73,3.73,0,0,0,.47,0V28h.93V25.35a3.33,3.33,0,0,0,1.55-1.55H28v-.93H25.63a3.73,3.73,0,0,0,0-.47v-.93H28v-.94H25.67v-1.4H28V18.2H25.67V16.8H28v-.93H25.67v-1.4H28v-.94H25.67v-1.4H28V11.2H25.67V9.8H28V8.87H25.67V7.47H28V6.53H25.67V5.6a3.73,3.73,0,0,0,0-.47H28V4.2H25.35A3.33,3.33,0,0,0,23.8,2.65Zm.93,19.75a2.33,2.33,0,0,1-2.33,2.33H5.6A2.33,2.33,0,0,1,3.27,22.4V5.6A2.33,2.33,0,0,1,5.6,3.27H22.4A2.33,2.33,0,0,1,24.73,5.6Z"/><path class="cls-1" d="M21.93,4.67H6.07a1.39,1.39,0,0,0-1.4,1.4V21.93a1.39,1.39,0,0,0,1.4,1.4H21.93a1.39,1.39,0,0,0,1.4-1.4V6.07A1.39,1.39,0,0,0,21.93,4.67Zm.47,17.26a.47.47,0,0,1-.47.47H6.07a.47.47,0,0,1-.47-.47V6.07a.47.47,0,0,1,.47-.47H21.93a.47.47,0,0,1,.47.47Z"/><path class="cls-1" d="M20.53,6.53h.94v.94h-.94Z"/><path class="cls-1" d="M6.53,20.53h.94v.94H6.53Z"/><path class="cls-1" d="M6.53,7.47v1.4h.94V7.47h1.4V6.53H7.47A.94.94,0,0,0,6.53,7.47Z"/><path class="cls-1" d="M20.53,20.53h-1.4v.94h2.34V19.13h-.94Z"/></g></g></g></svg>