<?xml version="1.0" encoding="utf-8"?>
<!-- Generator: Adobe Illustrator 22.1.0, SVG Export Plug-In . SVG Version: 6.00 Build 0)  -->
<svg version="1.1" id="Layer_1" xmlns="http://www.w3.org/2000/svg" xmlns:xlink="http://www.w3.org/1999/xlink" x="0px" y="0px"
	 viewBox="0 0 554 506" style="enable-background:new 0 0 554 506;" xml:space="preserve">
<style type="text/css">
	.st0{fill:#FFFFFF;}
</style>
<g>
	<path class="st0" d="M501,127H53c-18.7,0-34-15.3-34-34V61c0-18.7,15.3-34,34-34h448c18.7,0,34,15.3,34,34v32
		C535,111.7,519.7,127,501,127z"/>
	<path class="st0" d="M501,304H53c-18.7,0-34-15.3-34-34v-32c0-18.7,15.3-34,34-34h448c18.7,0,34,15.3,34,34v32
		C535,288.7,519.7,304,501,304z"/>
	<path class="st0" d="M501,481H53c-18.7,0-34-15.3-34-34v-32c0-18.7,15.3-34,34-34h448c18.7,0,34,15.3,34,34v32
		C535,465.7,519.7,481,501,481z"/>
</g>
</svg>
