<svg id="Layer_1" data-name="Layer 1" xmlns="http://www.w3.org/2000/svg" viewBox="0 0 427.33 118"><title>logo</title><path d="M168.68,65.54c-2.05-5.43-4.88-9.18-8.45-11.2a19.84,19.84,0,0,0,3.7-1.59,17.91,17.91,0,0,0,4.85-4,17,17,0,0,0,3.07-5.36,19.54,19.54,0,0,0,1.06-6.56,20.81,20.81,0,0,0-1.59-8,18.08,18.08,0,0,0-4.73-6.65,15.83,15.83,0,0,0-3.88-2.46,20.77,20.77,0,0,0-4.25-1.31,33.69,33.69,0,0,0-4.63-.56c-1.59-.08-3.27-.12-5-.12H123.05a3.89,3.89,0,0,0-3.89,3.88V80.6a3.89,3.89,0,0,0,3.89,3.88h2.54a4.14,4.14,0,0,0,4.15-4.14V59a2.14,2.14,0,0,1,2.15-2.14h12.73a13.43,13.43,0,0,1,8.17,2.68,15.13,15.13,0,0,1,3,3,16.67,16.67,0,0,1,2.07,3.89l5.34,15.24a4.14,4.14,0,0,0,3.91,2.77h2.58a4.14,4.14,0,0,0,3.9-5.56Zm-7.42-23.78a6.74,6.74,0,0,1-2.35,3,11.33,11.33,0,0,1-4.32,1.75,34.29,34.29,0,0,1-6.64.56H131.89A2.14,2.14,0,0,1,129.74,45V29.1A2.15,2.15,0,0,1,131.89,27h17.34c4.38,0,7.67.83,9.77,2.46s3,4,3,7.47A13.42,13.42,0,0,1,161.26,41.76Z" style="fill:#b56627"/><path d="M206,17.8H188.59a4.15,4.15,0,0,0-4.15,4.14v58.4a4.14,4.14,0,0,0,4.15,4.14H206c22.55,0,34-11.33,34-33.68C240,28.9,228.52,17.8,206,17.8Zm18.36,50.72a16.53,16.53,0,0,1-7.06,4.64,34.19,34.19,0,0,1-11.4,1.63h-8.71A2.14,2.14,0,0,1,195,72.64v-43a2.15,2.15,0,0,1,2.14-2.15h8.71a34.65,34.65,0,0,1,11.45,1.61,16.7,16.7,0,0,1,7,4.52A16.88,16.88,0,0,1,228,40.85a41.22,41.22,0,0,1,1.1,9.95A43.7,43.7,0,0,1,228,61.07,17.55,17.55,0,0,1,224.33,68.52Z" style="fill:#b56627"/><path d="M298.64,17.8h-2.37a4.15,4.15,0,0,0-3.88,2.71l-16.77,45.4a2.1,2.1,0,0,1-2,1.41h0a2.1,2.1,0,0,1-2-1.41l-16.68-45.4A4.16,4.16,0,0,0,251,17.8H248.6a4.14,4.14,0,0,0-3.86,5.65l22.74,58.39a4.1,4.1,0,0,0,3.86,2.64h4.52a4.11,4.11,0,0,0,3.86-2.63l22.78-58.4a4.14,4.14,0,0,0-3.86-5.65Z" style="fill:#b56627"/><path d="M353.12,21.75a23.67,23.67,0,0,0-8.26-3.1,52,52,0,0,0-9.56-.85H314.18A4.15,4.15,0,0,0,310,21.94v58.4a4.14,4.14,0,0,0,4.14,4.14h2.29a4.14,4.14,0,0,0,4.14-4.14V60.76a2.15,2.15,0,0,1,2.15-2.15h13.12c8.14,0,14.44-1.77,18.72-5.27s6.54-8.82,6.54-15.67A19.69,19.69,0,0,0,359,27.89,16.86,16.86,0,0,0,353.12,21.75Zm-17,27.17H322.76a2.16,2.16,0,0,1-2.15-2.15V29.64a2.16,2.16,0,0,1,2.15-2.15h13a38.28,38.28,0,0,1,5.8.43,13.35,13.35,0,0,1,4.6,1.55,7.93,7.93,0,0,1,3,3.07,11,11,0,0,1,1.12,5.32,14.1,14.1,0,0,1-.77,4.85,7.77,7.77,0,0,1-2.37,3.35,11.4,11.4,0,0,1-4.35,2.11A26.65,26.65,0,0,1,336.08,48.92Z" style="fill:#b56627"/><path d="M419.63,58.36a16.08,16.08,0,0,0-3.27-5.07,19.86,19.86,0,0,0-4.75-3.61,36,36,0,0,0-5.64-2.5,58.26,58.26,0,0,0-6.09-1.72c-2.05-.46-4-.88-6-1.28a70.62,70.62,0,0,1-7-1.76,18.57,18.57,0,0,1-4.35-1.9,5.51,5.51,0,0,1-2.09-2.14,7,7,0,0,1-.61-3.07,7.33,7.33,0,0,1,3.46-6.4c2.42-1.66,6-2.5,10.54-2.5,8.35,0,13.15,2.82,14.67,8.61a4.16,4.16,0,0,0,4,3.11h2.14a4.18,4.18,0,0,0,3.25-1.55,4,4,0,0,0,.83-3.36,18.76,18.76,0,0,0-7-11.17,24.32,24.32,0,0,0-8.07-4,36,36,0,0,0-10.21-1.37,31.84,31.84,0,0,0-9.68,1.4A24.06,24.06,0,0,0,376.19,22a17.64,17.64,0,0,0-5,6,16.73,16.73,0,0,0-1.78,7.63,16.57,16.57,0,0,0,1.31,6.78,14.83,14.83,0,0,0,4,5.23,25.17,25.17,0,0,0,6.74,3.89,63.84,63.84,0,0,0,9.55,2.87c3.73.77,6.89,1.53,9.42,2.26a26.5,26.5,0,0,1,6,2.38,7.14,7.14,0,0,1,4,6.87,8.17,8.17,0,0,1-1,4.09,9.52,9.52,0,0,1-3,3.15,15.09,15.09,0,0,1-4.75,2.06,25.86,25.86,0,0,1-6.34.73,27.67,27.67,0,0,1-6.77-.8,16.89,16.89,0,0,1-5.48-2.45,13.58,13.58,0,0,1-3.85-4.16,12.8,12.8,0,0,1-1.46-3.66,4.11,4.11,0,0,0-4-3.19H371.7a4.18,4.18,0,0,0-3.19,1.48,4.11,4.11,0,0,0-.91,3.33,23.32,23.32,0,0,0,1.62,5.46,20.13,20.13,0,0,0,5.44,7.29A25.34,25.34,0,0,0,383.53,84a41.25,41.25,0,0,0,12.29,1.66,31.87,31.87,0,0,0,9.91-1.49,25.34,25.34,0,0,0,7.94-4.19,19.42,19.42,0,0,0,5.26-6.48,18.36,18.36,0,0,0,1.9-8.29A18,18,0,0,0,419.63,58.36Z" style="fill:#b56627"/><path d="M58.5,6a53,53,0,1,0,53,53A53.07,53.07,0,0,0,58.5,6Zm0,104a51,51,0,1,1,51-51A51.06,51.06,0,0,1,58.5,110Z" style="fill:#287ba8"/><path d="M85.35,29.87H31.66A6.17,6.17,0,0,0,25.5,36v7.82A6.17,6.17,0,0,0,31.66,50H57v7.87H31.66A6.17,6.17,0,0,0,25.5,64v7.82A6.17,6.17,0,0,0,31.66,78H57V90.5H39.5a1.5,1.5,0,0,0,0,3h38a1.5,1.5,0,0,0,0-3H60V78H85.35a6.16,6.16,0,0,0,6.15-6.16V64a6.16,6.16,0,0,0-6.15-6.15H60V50H85.35a6.16,6.16,0,0,0,6.15-6.16V36A6.16,6.16,0,0,0,85.35,29.87Zm0,30A4.15,4.15,0,0,1,89.5,64v7.82A4.16,4.16,0,0,1,85.35,76H31.66a4.17,4.17,0,0,1-4.16-4.16V64a4.16,4.16,0,0,1,4.16-4.15Zm4.15-16A4.16,4.16,0,0,1,85.35,48H31.66a4.17,4.17,0,0,1-4.16-4.16V36a4.16,4.16,0,0,1,4.16-4.15H85.35A4.15,4.15,0,0,1,89.5,36Z" style="fill:#287ba8"/><path d="M43,38H38a1.5,1.5,0,0,0,0,3h5a1.5,1.5,0,0,0,0-3Z" style="fill:#287ba8"/><path d="M56,38H51a1.5,1.5,0,0,0,0,3h5a1.5,1.5,0,0,0,0-3Z" style="fill:#287ba8"/><path d="M79,38H74a1.5,1.5,0,0,0,0,3h5a1.5,1.5,0,0,0,0-3Z" style="fill:#287ba8"/><path d="M38,69h5a1.5,1.5,0,0,0,0-3H38a1.5,1.5,0,0,0,0,3Z" style="fill:#287ba8"/><path d="M51,69h5a1.5,1.5,0,0,0,0-3H51a1.5,1.5,0,0,0,0,3Z" style="fill:#287ba8"/><path d="M74,69h5a1.5,1.5,0,0,0,0-3H74a1.5,1.5,0,0,0,0,3Z" style="fill:#287ba8"/><text transform="translate(204.13 108.89)" style="font-size:20.378440856933594px;fill:#287ba8;font-family:Raavi, Raavi">READY TO HOST</text></svg>