<?xml version="1.0" encoding="utf-8"?>
<!-- Generator: Adobe Illustrator 22.1.0, SVG Export Plug-In . SVG Version: 6.00 Build 0)  -->
<svg version="1.1" id="Layer_1" xmlns="http://www.w3.org/2000/svg" xmlns:xlink="http://www.w3.org/1999/xlink" x="0px" y="0px"
	 viewBox="0 0 227 78" style="enable-background:new 0 0 227 78;" xml:space="preserve">
<style type="text/css">
	.st0{fill:#009CDE;}
	.st1{fill:#003087;}
	.st2{fill:#012169;}
</style>
<title>skrill-logo-white</title>
<desc>Created with Sketch.</desc>
<g>
	<g>
		<g>
			<path class="st0" d="M174.8,23.8h-12.5c-0.9,0-1.6,0.6-1.7,1.5l-5,32c-0.1,0.6,0.4,1.2,1,1.2h6.4c0.6,0,1.1-0.4,1.2-1l1.4-9.1
				c0.1-0.8,0.9-1.5,1.7-1.5h3.9c8.2,0,13-4,14.2-11.9c0.6-3.4,0-6.2-1.6-8.1C182.1,24.9,179,23.8,174.8,23.8z M176.3,35.5
				c-0.7,4.5-4.1,4.5-7.4,4.5H167l1.3-8.4c0.1-0.5,0.5-0.9,1-0.9h0.9c2.3,0,4.4,0,5.5,1.3C176.3,32.8,176.5,33.9,176.3,35.5z"/>
			<path class="st1" d="M85.8,23.8H73.3c-0.9,0-1.6,0.6-1.7,1.5l-5,32c-0.1,0.6,0.4,1.2,1,1.2h6c0.9,0,1.6-0.6,1.7-1.5l1.4-8.6
				c0.1-0.8,0.9-1.5,1.7-1.5h3.9c8.2,0,13-4,14.2-11.9c0.6-3.4,0-6.2-1.6-8.1C93.1,24.9,90,23.8,85.8,23.8z M87.2,35.5
				c-0.7,4.5-4.1,4.5-7.4,4.5h-1.9l1.3-8.4c0.1-0.5,0.5-0.9,1-0.9h0.9c2.3,0,4.4,0,5.5,1.3C87.3,32.8,87.5,33.9,87.2,35.5z"/>
			<path class="st1" d="M123.1,35.3h-6c-0.5,0-0.9,0.4-1,0.9l-0.3,1.7l-0.4-0.6c-1.3-1.9-4.2-2.5-7.1-2.5c-6.6,0-12.2,5-13.3,12
				c-0.6,3.5,0.2,6.8,2.2,9.2c1.8,2.1,4.4,3,7.5,3c5.3,0,8.3-3.4,8.3-3.4l-0.3,1.7c-0.1,0.6,0.4,1.2,1,1.2h5.4
				c0.9,0,1.6-0.6,1.7-1.5l3.2-20.5C124.2,35.9,123.7,35.3,123.1,35.3z M114.8,47c-0.6,3.4-3.3,5.7-6.7,5.7c-1.7,0-3.1-0.6-4-1.6
				c-0.9-1-1.2-2.5-0.9-4.2c0.5-3.4,3.3-5.8,6.7-5.8c1.7,0,3.1,0.6,4,1.6C114.7,43.8,115,45.3,114.8,47z"/>
			<path class="st0" d="M212.1,35.3h-6c-0.5,0-0.9,0.4-1,0.9l-0.3,1.7l-0.4-0.6c-1.3-1.9-4.2-2.5-7.1-2.5c-6.6,0-12.2,5-13.3,12
				c-0.6,3.5,0.2,6.8,2.2,9.2c1.8,2.1,4.4,3,7.5,3c5.3,0,8.3-3.4,8.3-3.4l-0.3,1.7c-0.1,0.6,0.4,1.2,1,1.2h5.4
				c0.9,0,1.6-0.6,1.7-1.5l3.2-20.5C213.3,35.9,212.8,35.3,212.1,35.3z M203.8,47c-0.6,3.4-3.3,5.7-6.7,5.7c-1.7,0-3.1-0.6-4-1.6
				c-0.9-1-1.2-2.5-0.9-4.2c0.5-3.4,3.3-5.8,6.7-5.8c1.7,0,3.1,0.6,4,1.6C203.7,43.8,204.1,45.3,203.8,47z"/>
			<path class="st1" d="M154.9,35.3h-6c-0.6,0-1.1,0.3-1.4,0.8l-8.3,12.2l-3.5-11.7c-0.2-0.7-0.9-1.2-1.7-1.2h-5.9
				c-0.7,0-1.2,0.7-1,1.4l6.6,19.4l-6.2,8.8c-0.5,0.7,0,1.6,0.9,1.6h6c0.6,0,1.1-0.3,1.4-0.7l20-28.8
				C156.3,36.3,155.8,35.3,154.9,35.3z"/>
			<path class="st0" d="M219.2,24.7L214,57.2c-0.1,0.6,0.4,1.2,1,1.2h5.2c0.9,0,1.6-0.6,1.7-1.5l5.1-32c0.1-0.6-0.4-1.2-1-1.2h-5.8
				C219.7,23.8,219.2,24.2,219.2,24.7z"/>
		</g>
	</g>
	<g>
		<path class="st0" d="M42.1,25.5c0.7-4.3,0-7.2-2.3-9.8c-2.6-2.9-7.2-4.2-13.1-4.2H9.6c-1.2,0-2.2,0.9-2.4,2.1L0,58.7
			c-0.1,0.9,0.5,1.7,1.5,1.7H12l-0.7,4.6c-0.1,0.8,0.5,1.5,1.3,1.5h8.9c1.1,0,2-0.8,2.1-1.8l0.1-0.5l1.7-10.6l0.1-0.6
			c0.2-1,1.1-1.8,2.1-1.8h1.3c8.6,0,15.4-3.5,17.4-13.6c0.8-4.2,0.4-7.8-1.8-10.3C43.8,26.6,43,26,42.1,25.5L42.1,25.5"/>
		<path class="st2" d="M42.1,25.5c0.7-4.3,0-7.2-2.3-9.8c-2.6-2.9-7.2-4.2-13.1-4.2H9.6c-1.2,0-2.2,0.9-2.4,2.1L0,58.7
			c-0.1,0.9,0.5,1.7,1.5,1.7H12l2.7-16.8l-0.1,0.5c0.2-1.2,1.2-2.1,2.4-2.1h5c9.9,0,17.6-4,19.8-15.6C42,26.1,42,25.8,42.1,25.5"/>
		<path class="st1" d="M17.5,25.5c0.1-0.7,0.6-1.3,1.2-1.6c0.3-0.1,0.6-0.2,0.9-0.2h13.4c1.6,0,3.1,0.1,4.4,0.3
			c0.4,0.1,0.8,0.1,1.1,0.2c0.4,0.1,0.7,0.2,1.1,0.3c0.2,0,0.3,0.1,0.5,0.2c0.7,0.2,1.3,0.5,1.9,0.8c0.7-4.3,0-7.2-2.3-9.8
			c-2.6-2.9-7.2-4.2-13.1-4.2H9.6c-1.2,0-2.2,0.9-2.4,2.1L0,58.7c-0.1,0.9,0.5,1.7,1.5,1.7H12l2.7-16.8L17.5,25.5z"/>
	</g>
</g>
</svg>
