<svg xmlns="http://www.w3.org/2000/svg" viewBox="0 0 29 12.57"><defs><style>.cls-1{fill:#040056;}</style></defs><title>surface1</title><g id="Layer_2" data-name="Layer 2"><g id="section_four" data-name="section four"><g id="surface1"><path class="cls-1" d="M19.33,1.45H9.67a.49.49,0,0,0-.49.48v5.8a.49.49,0,0,0,.49.49h9.66a.49.49,0,0,0,.49-.49V1.93A.49.49,0,0,0,19.33,1.45Zm-.48,5.8h-8.7V2.42h8.7Z"/><path class="cls-1" d="M25.13,1.45H21.27a.49.49,0,0,0-.49.48v5.8a.49.49,0,0,0,.49.49h3.86a.49.49,0,0,0,.49-.49V1.93A.49.49,0,0,0,25.13,1.45Zm-.48,5.8h-2.9V2.42h2.9Z"/><path class="cls-1" d="M7.73,1.45H3.87a.49.49,0,0,0-.49.48v5.8a.49.49,0,0,0,.49.49H7.73a.49.49,0,0,0,.49-.49V1.93A.49.49,0,0,0,7.73,1.45Zm-.48,5.8H4.35V2.42h2.9Z"/><path class="cls-1" d="M28.52,3.87A.49.49,0,0,0,29,3.38V.48A.49.49,0,0,0,28.52,0H.48A.49.49,0,0,0,0,.48v2.9a.49.49,0,0,0,.48.49,1,1,0,1,1,0,1.93A.49.49,0,0,0,0,6.28v5.8a.49.49,0,0,0,.48.49h28a.49.49,0,0,0,.48-.49V6.28a.49.49,0,0,0-.48-.48,1,1,0,1,1,0-1.93ZM28,11.6H1V9.67h.48v1.45h1V9.67h1v1.45h1V9.67h1v1.45h1V9.67h1v1.45h1V9.67h1v1.45h1V9.67h1v1.45h1V9.67h1v1.45h1V9.67h1v1.45h1V9.67h1v1.45h1V9.67h1v1.45h1V9.67h1v1.45h1V9.67h1v1.45h1V9.67h1v1.45h1V9.67h1v1.45h1V9.67H28Zm0-4.89v2H1v-2A1.94,1.94,0,0,0,1,3V1H28V3a1.94,1.94,0,0,0,0,3.75Z"/></g></g></g></svg>