<svg xmlns="http://www.w3.org/2000/svg" viewBox="0 0 40.7 42.74"><defs><style>.cls-1{fill:none;}.cls-1,.cls-2{stroke:#fff;stroke-miterlimit:10;stroke-width:3px;}.cls-2{fill:#fff;}</style></defs><title>Asset 2</title><g id="Layer_2" data-name="Layer 2"><g id="section_three" data-name="section three"><path class="cls-1" d="M22.81,13.91a8.91,8.91,0,1,0-8.9,8.9A8.91,8.91,0,0,0,22.81,13.91Z"/><path class="cls-2" d="M38.64,37.8,23.08,22.24a12.31,12.31,0,1,0-3.22,2.55l15.89,15.9a1.93,1.93,0,0,0,2.69,0l.2-.21A1.9,1.9,0,0,0,38.64,37.8ZM5,13.91a8.91,8.91,0,1,1,8.91,8.9A8.91,8.91,0,0,1,5,13.91Z"/></g></g></svg>