<svg xmlns="http://www.w3.org/2000/svg" viewBox="0 0 23.39 17.52"><defs><style>.cls-1{fill:#040056;}</style></defs><title>Asset 4</title><g id="Layer_2" data-name="Layer 2"><g id="section_four" data-name="section four"><path class="cls-1" d="M5.6,8.93a.83.83,0,0,0,0-1.17.84.84,0,0,0-1.17,0L.24,11.93a1.27,1.27,0,0,0-.18.27.88.88,0,0,0,0,.64,1.27,1.27,0,0,0,.18.27l4.18,4.18a.84.84,0,0,0,1.17,0,.83.83,0,0,0,0-1.17L2.85,13.36h13a.84.84,0,0,0,0-1.68h-13Z"/><path class="cls-1" d="M17.78,1.42l2.75,2.75h-13A.84.84,0,0,0,6.68,5a.85.85,0,0,0,.84.84h13L17.78,8.59A.84.84,0,0,0,19,9.77l4.17-4.18A.82.82,0,0,0,23.39,5a.83.83,0,0,0-.25-.59L19,.23a.85.85,0,0,0-1.18,0,.85.85,0,0,0,0,1.18Z"/></g></g></svg>