<svg xmlns="http://www.w3.org/2000/svg" viewBox="0 0 161.85 161.92"><defs><style>.cls-1{fill:#fff;}.cls-2{fill:red;}.cls-3{fill:#040056;}</style></defs><title>Asset 4</title><g id="Layer_2" data-name="Layer 2"><g id="section_two" data-name="section two"><circle class="cls-1" cx="80.93" cy="80.93" r="80.93"/><path class="cls-2" d="M81,.23a80.85,80.85,0,1,0,80.84,80.84A80.94,80.94,0,0,0,81,.23Zm0,158.64a77.8,77.8,0,1,1,77.79-77.8A77.89,77.89,0,0,1,81,158.87Z"/><path class="cls-3" d="M81,6.74a74.34,74.34,0,1,0,74.33,74.33A74.42,74.42,0,0,0,81,6.74ZM81,152.6a71.53,71.53,0,1,1,71.53-71.53A71.61,71.61,0,0,1,81,152.6Z"/><path class="cls-3" d="M122,36.63H40.06A9.41,9.41,0,0,0,30.67,46V58a9.41,9.41,0,0,0,9.39,9.4H78.72v12H40.06a9.4,9.4,0,0,0-9.39,9.39v11.92a9.41,9.41,0,0,0,9.39,9.4H78.72v19.07H52a2.29,2.29,0,0,0,0,4.57h58a2.29,2.29,0,1,0,0-4.57H83.3V110.06H122a9.41,9.41,0,0,0,9.4-9.4V88.74a9.41,9.41,0,0,0-9.4-9.39H83.3v-12H122a9.41,9.41,0,0,0,9.4-9.4V46A9.41,9.41,0,0,0,122,36.63Zm0,45.77a6.34,6.34,0,0,1,6.34,6.34v11.92A6.35,6.35,0,0,1,122,107H40.06a6.35,6.35,0,0,1-6.34-6.35V88.74a6.34,6.34,0,0,1,6.34-6.34ZM128.29,58A6.35,6.35,0,0,1,122,64.3H40.06A6.35,6.35,0,0,1,33.72,58V46a6.34,6.34,0,0,1,6.34-6.34H122A6.34,6.34,0,0,1,128.29,46Z"/><path class="cls-3" d="M53.56,43.88H44.7a2.66,2.66,0,0,0,0,5.32h8.86a2.66,2.66,0,0,0,0-5.32Z"/><path class="cls-3" d="M76.59,43.88H67.73a2.66,2.66,0,0,0,0,5.32h8.86a2.66,2.66,0,1,0,0-5.32Z"/><path class="cls-3" d="M117.34,43.88h-8.86a2.66,2.66,0,0,0,0,5.32h8.86a2.66,2.66,0,0,0,0-5.32Z"/><path class="cls-3" d="M44.7,98.81h8.86a2.66,2.66,0,0,0,0-5.31H44.7a2.66,2.66,0,1,0,0,5.31Z"/><path class="cls-3" d="M67.73,98.81h8.86a2.66,2.66,0,1,0,0-5.31H67.73a2.66,2.66,0,1,0,0,5.31Z"/><path class="cls-3" d="M108.48,98.81h8.86a2.66,2.66,0,1,0,0-5.31h-8.86a2.66,2.66,0,0,0,0,5.31Z"/></g></g></svg>